<svg xmlns="http://www.w3.org/2000/svg" viewBox="0 0 64 64">
  <rect width="64" height="64" rx="14" fill="#a78bfa"/>
  <path d="M14 22 L20 8 L26 20 Z" fill="#7c3aed"/>
  <path d="M50 22 L44 8 L38 20 Z" fill="#7c3aed"/>
  <path d="M16 16 L20 10 L24 17" fill="#fbcfe8"/>
  <path d="M48 16 L44 10 L40 17" fill="#fbcfe8"/>
  <ellipse cx="32" cy="36" rx="20" ry="18" fill="#ddd6fe"/>
  <path d="M22 32 q4 -5 8 0" stroke="#1f2937" stroke-width="2.6" stroke-linecap="round" fill="none"/>
  <path d="M34 32 q4 -5 8 0" stroke="#1f2937" stroke-width="2.6" stroke-linecap="round" fill="none"/>
  <path d="M28 40 q2 3 4 0 q2 3 4 0" stroke="#1f2937" stroke-width="1.8" stroke-linecap="round" fill="none"/>
  <ellipse cx="20" cy="40" rx="2.6" ry="1.8" fill="#fda4af" opacity="0.7"/>
  <ellipse cx="44" cy="40" rx="2.6" ry="1.8" fill="#fda4af" opacity="0.7"/>
</svg>
